<svg width="136" height="182" viewBox="0 0 136 182" fill="none" xmlns="http://www.w3.org/2000/svg">
<rect x="4.88696" width="112.67" height="181.915" rx="10" fill="#CE0517"/>
<path d="M4.88696 82.9285L68.0876 181.915H14.887C9.36412 181.915 4.88696 177.438 4.88696 171.915L4.88696 82.9285Z" fill="#032788"/>
<path d="M117.557 98.9863L54.356 0L107.557 0C113.079 0 117.557 4.47715 117.557 10L117.557 98.9863Z" fill="#032788"/>
<path d="M26.1867 99.363C22.9291 100.549 20.2375 100.989 18.1117 100.684C17.4259 100.594 16.9361 100.417 16.6421 100.155C16.3481 99.8933 16.0871 99.4491 15.8591 98.8227L15.0793 96.6802C14.7418 95.753 14.9866 95.1389 15.8135 94.8379C16.0891 94.7376 16.6576 94.701 17.5188 94.7281C18.38 94.7552 19.4792 94.6956 20.8165 94.5494C22.1447 94.3781 23.5104 94.0371 24.9137 93.5264C27.4697 92.5961 28.4695 91.3667 27.9131 89.8381C27.6304 89.0613 27.0812 88.5659 26.2655 88.352C25.4749 88.129 23.9496 88.1875 21.6896 88.5276L20.6815 88.6817C17.7244 89.1337 15.3914 88.9612 13.6825 88.1643C11.9644 87.3424 10.7177 85.8664 9.94249 83.7364C8.98483 81.1053 9.08893 78.7404 10.2548 76.6418C11.4115 74.5181 13.7565 72.8132 17.2898 71.5272C20.1966 70.4692 22.8393 70.0891 25.2179 70.3869C25.9037 70.4778 26.3936 70.6542 26.6875 70.9161C26.9724 71.153 27.2334 71.5972 27.4705 72.2487L28.1819 74.2033C28.5194 75.1304 28.2746 75.7445 27.4477 76.0455C27.2723 76.1093 26.2198 76.1803 24.2901 76.2583C22.3763 76.3021 20.6802 76.5931 19.2018 77.1312C16.5456 78.098 15.4865 79.3206 16.0246 80.7991C16.2891 81.5258 16.778 81.9722 17.4911 82.1383C18.2202 82.2702 19.6191 82.2151 21.6877 81.973L22.8735 81.8394C26.0356 81.483 28.4792 81.6862 30.2041 82.4489C31.9289 83.2116 33.1927 84.6956 33.9953 86.9007C34.9438 89.5068 34.8067 91.8979 33.5839 94.074C32.3611 96.2502 29.8954 98.0131 26.1867 99.363ZM63.7338 82.9301C64.2853 83.3537 64.5247 83.7774 64.4519 84.2012C64.4042 84.6158 64.0671 84.9372 63.4406 85.1652L60.5088 86.2323C59.757 86.5059 59.102 86.6166 58.5438 86.5643C57.9765 86.487 57.3829 86.2207 56.7631 85.7652L47.1615 78.9161L45.1261 83.6156L47.0414 88.8779C47.2968 89.5796 47.3334 90.148 47.1513 90.5832C46.96 90.9933 46.5011 91.3307 45.7744 91.5951L43.4439 92.4434C42.7172 92.7079 42.1488 92.7445 41.7387 92.5532C41.3194 92.3369 40.9821 91.8779 40.7267 91.1763L32.6003 68.8492C32.3449 68.1476 32.3129 67.5917 32.5041 67.1815C32.6863 66.7463 33.1407 66.3965 33.8674 66.132L36.1978 65.2838C36.9245 65.0193 37.4975 64.9952 37.9168 65.2115C38.3269 65.4027 38.6597 65.8492 38.915 66.5508L42.3216 75.9102L48.1819 62.5394C48.4984 61.7716 48.8126 61.2315 49.1247 60.9193C49.4526 60.5729 50.0802 60.231 51.0074 59.8935L53.6761 58.9222C54.3276 58.685 54.781 58.7612 55.0363 59.1507C55.3166 59.5311 55.31 60.0586 55.0163 60.733L49.8151 72.7571L63.7338 82.9301ZM70.3867 82.637C69.66 82.9015 69.0916 82.9381 68.6814 82.7469C68.2622 82.5305 67.9248 82.0716 67.6695 81.3699L59.5431 59.0428C59.2877 58.3412 59.2556 57.7853 59.4469 57.3752C59.629 56.94 60.0834 56.5901 60.8101 56.3256L63.1406 55.4774C63.8673 55.2129 64.4402 55.1888 64.8595 55.4051C65.2697 55.5964 65.6024 56.0428 65.8578 56.7445L73.9842 79.0716C74.2396 79.7732 74.2762 80.3416 74.0941 80.7768C73.9028 81.187 73.4438 81.5243 72.7171 81.7888L70.3867 82.637ZM80.2251 49.2591C84.2344 47.7999 87.5595 47.5403 90.2003 48.4805C92.8571 49.3864 94.7737 51.4557 95.9503 54.6882C97.1268 57.9208 96.9932 60.7504 95.5495 63.1772C94.1217 65.5699 91.4032 67.4958 87.3938 68.9551L84.0109 70.1864L85.6936 74.8097C85.949 75.5113 85.9856 76.0797 85.8035 76.5149C85.6122 76.9251 85.1533 77.2624 84.4266 77.5269L82.0961 78.3751C81.3694 78.6396 80.801 78.6762 80.3909 78.485C79.9716 78.2687 79.6343 77.8097 79.3789 77.108L71.2525 54.7809C70.9971 54.0793 70.9651 53.5234 71.1563 53.1133C71.3385 52.6781 71.7929 52.3282 72.5196 52.0637L80.2251 49.2591ZM85.803 63.0639C89.3111 61.7871 90.5636 59.7704 89.5603 57.014C88.5571 54.2575 86.3014 53.5178 82.7932 54.7946L78.9216 56.2038L81.9314 64.473L85.803 63.0639ZM104.399 62.4677C103.698 62.723 103.129 62.7596 102.694 62.5775C102.284 62.3863 101.947 61.9273 101.682 61.2006L101.107 59.6219C100.843 58.8952 100.806 58.3268 100.998 57.9166C101.214 57.4974 101.673 57.16 102.375 56.9047L111.546 53.5666C112.273 53.3021 112.846 53.278 113.265 53.4943C113.675 53.6855 114.008 54.132 114.263 54.8336L114.838 56.4123C115.093 57.1139 115.13 57.6824 114.948 58.1176C114.756 58.5277 114.297 58.865 113.571 59.1295L104.399 62.4677Z" fill="white"/>
<path d="M59.986 106.236C63.1823 105.895 65.4007 107.429 66.6411 110.837C67.5349 113.293 67.392 115.473 66.2124 117.378C65.0579 119.274 62.9144 120.792 59.7821 121.932L49.032 125.845C48.3053 126.109 47.7369 126.146 47.3268 125.955C46.9075 125.738 46.5702 125.279 46.3148 124.578L38.1884 102.251C37.933 101.549 37.901 100.993 38.0922 100.583C38.2744 100.148 38.7288 99.7978 39.4555 99.5333L49.7921 95.7711C52.6237 94.7404 55.0443 94.5688 57.054 95.2563C59.0545 95.9187 60.4698 97.39 61.2997 99.6704C61.7375 100.873 61.8336 102.073 61.5879 103.269C61.3581 104.431 60.8241 105.42 59.986 106.236ZM51.0308 101.28L45.6934 103.222L47.554 108.334L52.8914 106.392C55.0214 105.616 55.7763 104.377 55.1561 102.673C54.5359 100.969 53.1608 100.504 51.0308 101.28ZM57.9044 116.656C60.0344 115.881 60.7665 114.578 60.1007 112.749C59.4349 110.92 58.037 110.393 55.907 111.168L49.4419 113.521L51.4393 119.009L57.9044 116.656ZM94.9541 105.47C93.219 108.967 90.397 111.428 86.4878 112.85C82.5787 114.273 78.8355 114.203 75.2581 112.638C71.6967 111.04 69.1772 108.211 67.6997 104.152C66.2221 100.092 66.3384 96.3182 68.0483 92.8297C69.7742 89.3069 72.5917 86.8342 76.5009 85.4114C80.41 83.9885 84.1578 84.0717 87.7443 85.6609C91.3216 87.2251 93.8491 90.0369 95.3266 94.0963C96.8041 98.1558 96.68 101.947 94.9541 105.47ZM84.4084 107.137C86.6386 106.325 88.1657 104.947 88.9899 103.001C89.8391 101.046 89.8214 98.8527 88.9367 96.4221C88.052 93.9914 86.6561 92.3002 84.7489 91.3484C82.8667 90.3875 80.8105 90.313 78.5803 91.1247C76.275 91.9638 74.7227 93.3517 73.9236 95.2885C73.1496 97.2161 73.2049 99.3953 74.0896 101.826C74.9743 104.257 76.3326 105.962 78.1647 106.941C80.0217 107.911 82.103 107.976 84.4084 107.137Z" fill="white"/>
</svg>
