<svg width="114" height="182" viewBox="0 0 114 182" fill="none" xmlns="http://www.w3.org/2000/svg">
<path d="M0.886963 9.99999C0.886963 4.47715 5.36412 0 10.887 0H103.557C109.08 0 113.557 4.47715 113.557 10V171.915C113.557 177.438 109.08 181.915 103.557 181.915H10.887C5.36411 181.915 0.886963 177.438 0.886963 171.915V9.99999Z" fill="#CE0517"/>
<path d="M0.886963 82.9285L64.0876 181.915L10.887 181.915C5.36411 181.915 0.886963 177.438 0.886963 171.915V82.9285Z" fill="#032788"/>
<path d="M113.557 98.9863L50.3561 0H103.557C109.08 0 113.557 4.47715 113.557 10V98.9863Z" fill="#032788"/>
<path d="M22.1868 99.363C18.9292 100.549 16.2375 100.989 14.1118 100.684C13.426 100.594 12.9361 100.417 12.6421 100.155C12.3482 99.8933 12.0872 99.4491 11.8592 98.8227L11.0793 96.6802C10.7419 95.753 10.9866 95.1389 11.8135 94.8379C12.0892 94.7376 12.6576 94.701 13.5188 94.7281C14.38 94.7552 15.4793 94.6956 16.8166 94.5494C18.1448 94.3781 19.5105 94.0371 20.9138 93.5264C23.4697 92.5961 24.4695 91.3667 23.9132 89.8381C23.6305 89.0613 23.0812 88.5659 22.2656 88.352C21.4749 88.129 19.9496 88.1875 17.6897 88.5276L16.6816 88.6817C13.7245 89.1337 11.3915 88.9612 9.68252 88.1643C7.96445 87.3424 6.71779 85.8664 5.94255 83.7364C4.98489 81.1053 5.08899 78.7404 6.25486 76.6418C7.4116 74.5181 9.7566 72.8132 13.2898 71.5272C16.1966 70.4692 18.8393 70.0891 21.2179 70.3869C21.9037 70.4778 22.3936 70.6542 22.6876 70.9161C22.9725 71.153 23.2334 71.5972 23.4706 72.2487L24.182 74.2033C24.5194 75.1304 24.2747 75.7445 23.4478 76.0455C23.2724 76.1093 22.2198 76.1803 20.2901 76.2583C18.3764 76.3021 16.6803 76.5931 15.2018 77.1312C12.5456 78.098 11.4866 79.3206 12.0247 80.7991C12.2892 81.5258 12.778 81.9722 13.4912 82.1383C14.2203 82.2702 15.6191 82.2151 17.6877 81.973L18.8735 81.8394C22.0357 81.483 24.4792 81.6862 26.2041 82.4489C27.929 83.2116 29.1928 84.6956 29.9954 86.9007C30.9439 89.5068 30.8068 91.8979 29.584 94.074C28.3612 96.2502 25.8954 98.0131 22.1868 99.363Z" fill="white"/>
<path d="M59.7339 82.9301C60.2854 83.3537 60.5247 83.7774 60.4519 84.2012C60.4042 84.6158 60.0671 84.9372 59.4407 85.1652L56.5088 86.2323C55.7571 86.5059 55.1021 86.6166 54.5439 86.5643C53.9766 86.4871 53.383 86.2207 52.7632 85.7652L43.1616 78.9161L41.1262 83.6156L43.0415 88.8779C43.2969 89.5796 43.3335 90.148 43.1514 90.5832C42.9601 90.9933 42.5011 91.3307 41.7744 91.5951L39.444 92.4434C38.7173 92.7079 38.1489 92.7445 37.7387 92.5532C37.3195 92.3369 36.9821 91.8779 36.7268 91.1763L28.6004 68.8492C28.345 68.1476 28.3129 67.5917 28.5042 67.1815C28.6863 66.7463 29.1407 66.3965 29.8674 66.132L32.1979 65.2838C32.9246 65.0193 33.4975 64.9952 33.9168 65.2115C34.327 65.4027 34.6597 65.8492 34.9151 66.5508L38.3216 75.9102L44.182 62.5394C44.4984 61.7716 44.8127 61.2315 45.1247 60.9193C45.4527 60.5729 46.0803 60.231 47.0074 59.8935L49.6762 58.9222C50.3277 58.685 50.7811 58.7612 51.0364 59.1507C51.3167 59.5311 51.31 60.0586 51.0163 60.733L45.8151 72.7571L59.7339 82.9301Z" fill="white"/>
<path d="M66.3867 82.637C65.6601 82.9015 65.0916 82.9381 64.6815 82.7469C64.2622 82.5306 63.9249 82.0716 63.6695 81.3699L55.5431 59.0428C55.2877 58.3412 55.2557 57.7853 55.4469 57.3752C55.6291 56.94 56.0835 56.5901 56.8102 56.3256L59.1406 55.4774C59.8673 55.2129 60.4403 55.1888 60.8596 55.4051C61.2697 55.5964 61.6025 56.0428 61.8579 56.7445L69.9843 79.0716C70.2396 79.7732 70.2763 80.3416 70.0941 80.7768C69.9029 81.187 69.4439 81.5243 68.7172 81.7888L66.3867 82.637Z" fill="white"/>
<path d="M76.2251 49.2591C80.2345 47.7999 83.5596 47.5403 86.2004 48.4804C88.8571 49.3864 90.7738 51.4557 91.9503 54.6882C93.1269 57.9208 92.9933 60.7504 91.5496 63.1772C90.1218 65.5699 87.4032 67.4958 83.3939 68.9551L80.011 70.1864L81.6937 74.8097C81.9491 75.5113 81.9857 76.0797 81.8036 76.5149C81.6123 76.9251 81.1533 77.2624 80.4266 77.5269L78.0962 78.3751C77.3695 78.6396 76.8011 78.6762 76.3909 78.485C75.9717 78.2687 75.6343 77.8097 75.379 77.108L67.2526 54.7809C66.9972 54.0793 66.9651 53.5234 67.1564 53.1133C67.3385 52.6781 67.7929 52.3282 68.5196 52.0637L76.2251 49.2591ZM81.803 63.0639C85.3112 61.7871 86.5637 59.7704 85.5604 57.014C84.5571 54.2575 82.3014 53.5178 78.7932 54.7946L74.9217 56.2038L77.9315 64.473L81.803 63.0639Z" fill="white"/>
<path d="M100.399 62.4677C99.6977 62.723 99.1293 62.7596 98.6941 62.5775C98.2839 62.3863 97.9466 61.9273 97.6821 61.2006L97.1075 59.6219C96.843 58.8952 96.8064 58.3268 96.9976 57.9166C97.2139 57.4974 97.6729 57.16 98.3746 56.9047L107.546 53.5666C108.273 53.3021 108.846 53.278 109.265 53.4943C109.675 53.6855 110.008 54.132 110.263 54.8336L110.838 56.4123C111.093 57.1139 111.13 57.6824 110.948 58.1176C110.756 58.5277 110.297 58.865 109.571 59.1295L100.399 62.4677Z" fill="white"/>
<path d="M55.986 106.236C59.1824 105.895 61.4008 107.429 62.6411 110.837C63.535 113.293 63.3921 115.473 62.2125 117.378C61.0579 119.274 58.9145 120.792 55.7822 121.932L45.0321 125.845C44.3054 126.109 43.737 126.146 43.3269 125.955C42.9076 125.738 42.5703 125.279 42.3149 124.578L34.1885 102.25C33.9331 101.549 33.9011 100.993 34.0923 100.583C34.2745 100.148 34.7289 99.7978 35.4556 99.5333L45.7922 95.771C48.6238 94.7404 51.0444 94.5688 53.0541 95.2563C55.0546 95.9187 56.4699 97.39 57.2998 99.6703C57.7376 100.873 57.8336 102.073 57.5879 103.269C57.3582 104.431 56.8242 105.42 55.986 106.236ZM47.0309 101.28L41.6935 103.222L43.5541 108.334L48.8915 106.391C51.0215 105.616 51.7764 104.377 51.1562 102.673C50.536 100.969 49.1609 100.504 47.0309 101.28ZM53.9045 116.656C56.0345 115.881 56.7665 114.578 56.1007 112.749C55.4349 110.92 54.0371 110.393 51.9071 111.168L45.442 113.521L47.4394 119.009L53.9045 116.656Z" fill="white"/>
<path d="M90.9541 105.47C89.2191 108.967 86.3971 111.428 82.4879 112.85C78.5788 114.273 74.8356 114.203 71.2582 112.638C67.6968 111.04 65.1773 108.211 63.6997 104.152C62.2222 100.092 62.3384 96.3182 64.0484 92.8297C65.7743 89.3069 68.5918 86.8341 72.5009 85.4113C76.4101 83.9885 80.1579 84.0717 83.7444 85.6609C87.3217 87.225 89.8492 90.0368 91.3267 94.0963C92.8042 98.1558 92.6801 101.947 90.9541 105.47ZM80.4084 107.137C82.6387 106.325 84.1658 104.946 84.99 103.001C85.8392 101.046 85.8215 98.8527 84.9368 96.4221C84.0521 93.9914 82.6562 92.3002 80.749 91.3484C78.8668 90.3875 76.8106 90.3129 74.5804 91.1247C72.275 91.9638 70.7228 93.3517 69.9237 95.2885C69.1496 97.2161 69.205 99.3953 70.0897 101.826C70.9744 104.257 72.3327 105.962 74.1647 106.941C76.0218 107.911 78.1031 107.976 80.4084 107.137Z" fill="white"/>
</svg>
