<svg width="113" height="182" viewBox="0 0 113 182" fill="none" xmlns="http://www.w3.org/2000/svg">
<rect width="112.67" height="181.915" rx="10" fill="#EBEBEB"/>
<path d="M0 82.9285L63.2007 181.915H10C4.47715 181.915 6.64492e-07 177.438 6.25661e-07 171.915L0 82.9285Z" fill="#1A084B"/>
<path d="M112.67 98.9863L49.4691 0L102.67 0C108.193 0 112.67 4.47715 112.67 10L112.67 98.9863Z" fill="#1A084B"/>
<path d="M65.3832 67.9119V114.457H54.1559V78.4119H53.8832L43.4741 84.7756V75.0483L54.9514 67.9119H65.3832Z" fill="#1A084B"/>
<path d="M21.1953 8.81818V35H14.8799V14.7244H14.7265L8.87139 18.304V12.8324L15.3274 8.81818H21.1953Z" fill="#1A084B"/>
<path d="M91.3092 173.097V146.915H97.6245V167.19H97.7779L103.633 163.611V169.082L97.1771 173.097H91.3092Z" fill="#1A084B"/>
</svg>
