<svg width="114" height="183" viewBox="0 0 114 183" fill="none" xmlns="http://www.w3.org/2000/svg">
<rect x="0.450562" y="0.189941" width="112.67" height="181.915" rx="10" fill="#EBEBEB"/>
<path d="M0.450562 83.1184L63.6512 182.105H10.4506C4.92771 182.105 0.450562 177.628 0.450562 172.105L0.450562 83.1184Z" fill="#D81E81"/>
<path d="M113.12 99.1763L49.9197 0.189941L103.12 0.189941C108.643 0.189941 113.12 4.66709 113.12 10.1899L113.12 99.1763Z" fill="#D81E81"/>
<path d="M43.1463 68.1019V114.647H31.919V78.6019H31.6463L21.2372 84.9655V75.2382L32.7145 68.1019H43.1463ZM72.6861 115.784C68.6255 115.784 65.1255 114.822 62.1861 112.897C59.2467 110.958 56.9815 108.178 55.3906 104.556C53.7997 100.92 53.0118 96.5489 53.027 91.4428C53.0422 86.3367 53.8376 82.0034 55.4134 78.4428C57.0043 74.867 59.2618 72.1473 62.1861 70.2837C65.1255 68.4049 68.6255 67.4655 72.6861 67.4655C76.7467 67.4655 80.2467 68.4049 83.1861 70.2837C86.1406 72.1473 88.4134 74.867 90.0043 78.4428C91.5952 82.0185 92.3831 86.3519 92.3679 91.4428C92.3679 96.564 91.5725 100.943 89.9815 104.579C88.3906 108.216 86.1255 110.996 83.1861 112.92C80.2618 114.829 76.7618 115.784 72.6861 115.784ZM72.6861 106.579C75.1103 106.579 77.0725 105.344 78.5725 102.875C80.0725 100.39 80.8149 96.5792 80.7997 91.4428C80.7997 88.0792 80.4588 85.3064 79.777 83.1246C79.0952 80.9276 78.1482 79.2913 76.9361 78.2155C75.724 77.1398 74.3073 76.6019 72.6861 76.6019C70.277 76.6019 68.33 77.8216 66.8452 80.261C65.3603 82.6852 64.6103 86.4125 64.5952 91.4428C64.58 94.8519 64.9058 97.6776 65.5725 99.9201C66.2543 102.162 67.2088 103.837 68.4361 104.943C69.6634 106.034 71.08 106.579 72.6861 106.579Z" fill="#D81E81"/>
<path d="M20.2476 9.00812V35.1899H13.9323V14.9144H13.7789L7.92376 18.4939V13.0223L14.3797 9.00812H20.2476ZM36.8637 35.8291C34.5797 35.8291 32.6109 35.288 30.9575 34.2056C29.3041 33.1147 28.0299 31.5507 27.1351 29.5138C26.2402 27.4684 25.797 25.0095 25.8055 22.1374C25.814 19.2652 26.2615 16.8277 27.1478 14.8249C28.0427 12.8135 29.3126 11.2837 30.9575 10.2354C32.6109 9.17858 34.5797 8.65017 36.8637 8.65017C39.1478 8.65017 41.1166 9.17858 42.77 10.2354C44.4319 11.2837 45.7103 12.8135 46.6052 14.8249C47.5001 16.8362 47.9433 19.2737 47.9348 22.1374C47.9348 25.0181 47.4873 27.4811 46.5924 29.5266C45.6976 31.572 44.4234 33.136 42.77 34.2184C41.1251 35.2922 39.1564 35.8291 36.8637 35.8291ZM36.8637 30.6516C38.2274 30.6516 39.3311 29.957 40.1748 28.5678C41.0186 27.1701 41.4362 25.0266 41.4277 22.1374C41.4277 20.2453 41.2359 18.6857 40.8524 17.4584C40.4689 16.2226 39.9362 15.3022 39.2544 14.697C38.5726 14.0919 37.7757 13.7894 36.8637 13.7894C35.5086 13.7894 34.4135 14.4755 33.5782 15.8476C32.743 17.2112 32.3211 19.3078 32.3126 22.1374C32.3041 24.055 32.4873 25.6445 32.8623 26.9059C33.2458 28.1672 33.7828 29.109 34.4731 29.7311C35.1635 30.3448 35.9603 30.6516 36.8637 30.6516Z" fill="#D81E81"/>
<path d="M93.3233 173.287V147.105H99.6386V167.38H99.792L105.647 163.801V169.272L99.1912 173.287H93.3233ZM76.7072 146.466C78.9913 146.466 80.96 147.007 82.6134 148.089C84.2668 149.18 85.541 150.744 86.4359 152.781C87.3308 154.826 87.7739 157.285 87.7654 160.157C87.7569 163.029 87.3094 165.467 86.4231 167.47C85.5282 169.481 84.2583 171.011 82.6134 172.059C80.96 173.116 78.9913 173.645 76.7072 173.645C74.4231 173.645 72.4543 173.116 70.8009 172.059C69.139 171.011 67.8606 169.481 66.9657 167.47C66.0708 165.458 65.6276 163.021 65.6362 160.157C65.6362 157.277 66.0836 154.814 66.9785 152.768C67.8734 150.723 69.1475 149.159 70.8009 148.076C72.4458 147.002 74.4146 146.466 76.7072 146.466ZM76.7072 151.643C75.3435 151.643 74.2398 152.338 73.3961 153.727C72.5523 155.125 72.1347 157.268 72.1433 160.157C72.1433 162.049 72.335 163.609 72.7185 164.836C73.1021 166.072 73.6347 166.993 74.3165 167.598C74.9984 168.203 75.7952 168.505 76.7072 168.505C78.0623 168.505 79.1575 167.819 79.9927 166.447C80.8279 165.083 81.2498 162.987 81.2583 160.157C81.2668 158.24 81.0836 156.65 80.7086 155.389C80.3251 154.127 79.7881 153.186 79.0978 152.564C78.4075 151.95 77.6106 151.643 76.7072 151.643Z" fill="#D81E81"/>
</svg>
