<svg width="114" height="183" viewBox="0 0 114 183" fill="none" xmlns="http://www.w3.org/2000/svg">
<rect x="0.443359" y="0.189941" width="112.67" height="181.915" rx="10" fill="#EBEBEB"/>
<path d="M0.443359 83.1184L63.644 182.105H10.4434C4.92051 182.105 0.44336 177.628 0.44336 172.105L0.443359 83.1184Z" fill="#D81E81"/>
<path d="M113.113 99.1763L49.9125 0.189941L103.113 0.189941C108.636 0.189941 113.113 4.66709 113.113 10.1899L113.113 99.1763Z" fill="#D81E81"/>
<path d="M49.9204 68.1019V114.647H38.6931V78.6019H38.4204L28.0113 84.9655V75.2382L39.4885 68.1019H49.9204ZM81.7329 68.1019V114.647H70.5056V78.6019H70.2329L59.8238 84.9655V75.2382L71.301 68.1019H81.7329Z" fill="#D81E81"/>
<path d="M24.0549 9.00812V35.1899H17.7395V14.9144H17.5861L11.731 18.4939V13.0223L18.187 9.00812H24.0549ZM41.9494 9.00812V35.1899H35.6341V14.9144H35.4807L29.6255 18.4939V13.0223L36.0815 9.00812H41.9494Z" fill="#D81E81"/>
<path d="M89.5016 173.287V147.105H95.817V167.38H95.9704L101.826 163.801V169.272L95.3695 173.287H89.5016ZM71.6071 173.287V147.105H77.9225V167.38H78.0759L83.931 163.801V169.272L77.475 173.287H71.6071Z" fill="#D81E81"/>
</svg>
