<svg width="113" height="183" viewBox="0 0 113 183" fill="none" xmlns="http://www.w3.org/2000/svg">
<rect x="0.165039" y="0.190063" width="112.67" height="181.915" rx="10" fill="#EBEBEB"/>
<path d="M0.165039 83.1185L63.3657 182.105H10.165C4.64219 182.105 0.16504 177.628 0.16504 172.105L0.165039 83.1185Z" fill="#D81E81"/>
<path d="M112.835 99.1764L49.6342 0.190063L102.835 0.190063C108.358 0.190063 112.835 4.66721 112.835 10.1901L112.835 99.1764Z" fill="#D81E81"/>
<path d="M45.642 68.102V114.647H34.4148V78.602H34.142L23.733 84.9656V75.2384L35.2102 68.102H45.642ZM55.9318 114.647V106.557L72.9091 91.6929C74.1818 90.5414 75.2652 89.4884 76.1591 88.5338C77.053 87.5641 77.7348 86.5944 78.2045 85.6247C78.6742 84.6399 78.9091 83.5717 78.9091 82.4202C78.9091 81.1323 78.6288 80.0338 78.0682 79.1247C77.5076 78.2005 76.7348 77.4884 75.75 76.9884C74.7652 76.4884 73.6364 76.2384 72.3636 76.2384C71.0758 76.2384 69.947 76.5035 68.9773 77.0338C68.0076 77.549 67.25 78.299 66.7045 79.2838C66.1742 80.2687 65.9091 81.4656 65.9091 82.8747H55.25C55.25 79.7081 55.9621 76.9732 57.3864 74.6702C58.8106 72.3672 60.8106 70.5944 63.3864 69.352C65.9773 68.0944 68.9848 67.4656 72.4091 67.4656C75.9394 67.4656 79.0076 68.0566 81.6136 69.2384C84.2197 70.4202 86.2348 72.0717 87.6591 74.1929C89.0985 76.299 89.8182 78.7459 89.8182 81.5338C89.8182 83.3066 89.4621 85.0641 88.75 86.8066C88.0379 88.549 86.7576 90.4732 84.9091 92.5793C83.0758 94.6853 80.4697 97.2081 77.0909 100.147L71.5227 105.284V105.579H90.3864V114.647H55.9318Z" fill="#D81E81"/>
<path d="M21.7453 9.00824V35.1901H15.43V14.9145H15.2766L9.42144 18.494V13.0224L15.8774 9.00824H21.7453ZM27.5333 35.1901V30.6389L37.083 22.2781C37.7989 21.6304 38.4083 21.0381 38.9111 20.5011C39.414 19.9557 39.7975 19.4102 40.0617 18.8648C40.3259 18.3108 40.458 17.7099 40.458 17.0622C40.458 16.3378 40.3003 15.7199 39.985 15.2085C39.6697 14.6886 39.235 14.2881 38.681 14.0068C38.1271 13.7256 37.4921 13.5849 36.7762 13.5849C36.0518 13.5849 35.4168 13.7341 34.8714 14.0324C34.3259 14.3222 33.8998 14.744 33.593 15.298C33.2947 15.852 33.1455 16.5253 33.1455 17.3179H27.1498C27.1498 15.5367 27.5503 13.9983 28.3515 12.7028C29.1526 11.4074 30.2776 10.4102 31.7265 9.71137C33.1839 9.00398 34.8756 8.65029 36.8018 8.65029C38.7876 8.65029 40.5134 8.98268 41.9793 9.64745C43.4452 10.3122 44.5788 11.2412 45.3799 12.4344C46.1896 13.619 46.5944 14.9955 46.5944 16.5636C46.5944 17.5608 46.3941 18.5494 45.9935 19.5296C45.593 20.5097 44.8728 21.5921 43.833 22.7767C42.8018 23.9614 41.3359 25.3804 39.4353 27.0338L36.3032 29.923V30.0892H46.914V35.1901H27.5333Z" fill="#D81E81"/>
<path d="M91.2546 173.287V147.105H97.5699V167.38H97.7233L103.578 163.801V169.272L97.1225 173.287H91.2546ZM85.4666 147.105V151.656L75.9169 160.017C75.2009 160.665 74.5916 161.257 74.0887 161.794C73.5859 162.339 73.2024 162.885 72.9382 163.43C72.674 163.984 72.5419 164.585 72.5419 165.233C72.5419 165.957 72.6995 166.575 73.0149 167.086C73.3302 167.606 73.7649 168.007 74.3188 168.288C74.8728 168.569 75.5078 168.71 76.2237 168.71C76.9481 168.71 77.5831 168.561 78.1285 168.263C78.674 167.973 79.1001 167.551 79.4069 166.997C79.7052 166.443 79.8544 165.77 79.8544 164.977H85.8501C85.8501 166.758 85.4495 168.297 84.6484 169.592C83.8473 170.888 82.7223 171.885 81.2734 172.584C79.816 173.291 78.1242 173.645 76.1981 173.645C74.2123 173.645 72.4865 173.312 71.0206 172.647C69.5546 171.983 68.4211 171.054 67.62 169.861C66.8103 168.676 66.4055 167.299 66.4055 165.731C66.4055 164.734 66.6058 163.745 67.0063 162.765C67.4069 161.785 68.1271 160.703 69.1669 159.518C70.1981 158.334 71.664 156.915 73.5646 155.261L76.6967 152.372V152.206H66.0859V147.105H85.4666Z" fill="#D81E81"/>
</svg>
