<svg width="114" height="182" viewBox="0 0 114 182" fill="none" xmlns="http://www.w3.org/2000/svg">
<rect x="0.721497" width="112.67" height="181.915" rx="10" fill="#EBEBEB"/>
<path d="M0.721497 82.9285L63.9222 181.915H10.7215C5.19865 181.915 0.721497 177.438 0.721497 171.915L0.721497 82.9285Z" fill="#1A084B"/>
<path d="M113.391 98.9863L50.1907 0L103.391 0C108.914 0 113.391 4.47715 113.391 10L113.391 98.9863Z" fill="#1A084B"/>
<path d="M40.582 114.457V106.366L57.5592 91.5029C58.832 90.3513 59.9153 89.2983 60.8092 88.3438C61.7032 87.3741 62.385 86.4044 62.8547 85.4347C63.3244 84.4498 63.5592 83.3816 63.5592 82.2301C63.5592 80.9422 63.2789 79.8438 62.7183 78.9347C62.1577 78.0104 61.385 77.2983 60.4001 76.7983C59.4153 76.2983 58.2865 76.0483 57.0138 76.0483C55.7259 76.0483 54.5971 76.3135 53.6274 76.8438C52.6577 77.3589 51.9001 78.1089 51.3547 79.0938C50.8244 80.0786 50.5592 81.2756 50.5592 82.6847H39.9001C39.9001 79.518 40.6123 76.7832 42.0365 74.4801C43.4608 72.1771 45.4608 70.4044 48.0365 69.1619C50.6274 67.9044 53.635 67.2756 57.0592 67.2756C60.5895 67.2756 63.6577 67.8665 66.2638 69.0483C68.8698 70.2301 70.885 71.8816 72.3092 74.0028C73.7486 76.1089 74.4683 78.5559 74.4683 81.3438C74.4683 83.1165 74.1123 84.8741 73.4001 86.6165C72.688 88.3589 71.4077 90.2832 69.5592 92.3892C67.7259 94.4953 65.1198 97.018 61.7411 99.9574L56.1729 105.094V105.389H75.0365V114.457H40.582Z" fill="#1A084B"/>
<path d="M7.77891 35V30.4489L17.3286 22.0881C18.0445 21.4403 18.6539 20.848 19.1567 20.3111C19.6596 19.7656 20.0431 19.2202 20.3073 18.6747C20.5715 18.1207 20.7036 17.5199 20.7036 16.8722C20.7036 16.1477 20.546 15.5298 20.2306 15.0185C19.9153 14.4986 19.4806 14.098 18.9266 13.8168C18.3727 13.5355 17.7377 13.3949 17.0218 13.3949C16.2974 13.3949 15.6624 13.544 15.117 13.8423C14.5715 14.1321 14.1454 14.554 13.8386 15.108C13.5403 15.6619 13.3911 16.3352 13.3911 17.1278H7.39539C7.39539 15.3466 7.79595 13.8082 8.59709 12.5128C9.39823 11.2173 10.5232 10.2202 11.9721 9.52131C13.4295 8.81392 15.1212 8.46023 17.0474 8.46023C19.0332 8.46023 20.759 8.79261 22.2249 9.45739C23.6908 10.1222 24.8244 11.0511 25.6255 12.2443C26.4352 13.429 26.84 14.8054 26.84 16.3736C26.84 17.3707 26.6397 18.3594 26.2391 19.3395C25.8386 20.3196 25.1184 21.402 24.0786 22.5866C23.0474 23.7713 21.5815 25.1903 19.6809 26.8438L16.5488 29.733V29.8991H27.1596V35H7.77891Z" fill="#1A084B"/>
<path d="M106.168 146.915V151.466L96.6188 159.827C95.9029 160.474 95.2935 161.067 94.7906 161.604C94.2878 162.149 93.9043 162.695 93.6401 163.24C93.3759 163.794 93.2438 164.395 93.2438 165.043C93.2438 165.767 93.4014 166.385 93.7168 166.896C94.0321 167.416 94.4668 167.817 95.0208 168.098C95.5747 168.379 96.2097 168.52 96.9256 168.52C97.65 168.52 98.285 168.371 98.8304 168.072C99.3759 167.783 99.802 167.361 100.109 166.807C100.407 166.253 100.556 165.58 100.556 164.787H106.552C106.552 166.568 106.151 168.107 105.35 169.402C104.549 170.697 103.424 171.695 101.975 172.393C100.518 173.101 98.8261 173.455 96.9 173.455C94.9142 173.455 93.1884 173.122 91.7225 172.457C90.2565 171.793 89.123 170.864 88.3219 169.67C87.5122 168.486 87.1074 167.109 87.1074 165.541C87.1074 164.544 87.3077 163.555 87.7083 162.575C88.1088 161.595 88.829 160.513 89.8688 159.328C90.9 158.143 92.3659 156.724 94.2665 155.071L97.3986 152.182V152.016H86.7878V146.915H106.168Z" fill="#1A084B"/>
</svg>
