<svg width="114" height="182" viewBox="0 0 114 182" fill="none" xmlns="http://www.w3.org/2000/svg">
<rect x="0.443359" width="112.67" height="181.915" rx="10" fill="#EBEBEB"/>
<path d="M0.443359 82.9285L63.644 181.915H10.4434C4.92051 181.915 0.44336 177.438 0.44336 171.915L0.443359 82.9285Z" fill="#1A084B"/>
<path d="M113.113 98.9863L49.9125 0L103.113 0C108.636 0 113.113 4.47715 113.113 10L113.113 98.9863Z" fill="#1A084B"/>
<path d="M57.0709 115.094C53.5255 115.094 50.3815 114.488 47.6391 113.276C44.9118 112.048 42.7603 110.359 41.1846 108.207C39.6088 106.056 38.8058 103.579 38.7755 100.776H50.0937C50.1391 101.791 50.4649 102.692 51.0709 103.48C51.677 104.253 52.5028 104.859 53.5482 105.298C54.5937 105.738 55.7831 105.957 57.1164 105.957C58.4497 105.957 59.624 105.723 60.6391 105.253C61.6694 104.768 62.4724 104.109 63.0482 103.276C63.624 102.427 63.9043 101.457 63.8891 100.366C63.9043 99.2756 63.5937 98.3059 62.9573 97.4574C62.3209 96.6089 61.4194 95.9498 60.2528 95.4801C59.1012 95.0104 57.7376 94.7756 56.1618 94.7756H51.6391V86.7756H56.1618C57.5406 86.7756 58.7528 86.5483 59.7982 86.0938C60.8588 85.6392 61.6846 85.0029 62.2755 84.1847C62.8664 83.3513 63.1543 82.3968 63.1391 81.321C63.1543 80.2756 62.9043 79.3589 62.3891 78.571C61.8891 77.768 61.1846 77.1468 60.2755 76.7074C59.3815 76.268 58.3437 76.0483 57.1618 76.0483C55.9194 76.0483 54.7906 76.268 53.7755 76.7074C52.7755 77.1468 51.98 77.768 51.3891 78.571C50.7982 79.3741 50.4876 80.3059 50.4573 81.3665H39.7073C39.7376 78.5938 40.5103 76.1544 42.0255 74.0483C43.5406 71.9271 45.6012 70.268 48.2073 69.071C50.8285 67.8741 53.8134 67.2756 57.1618 67.2756C60.4952 67.2756 63.427 67.8589 65.9573 69.0256C68.4876 70.1922 70.4573 71.7832 71.8664 73.7983C73.2755 75.7983 73.98 78.0635 73.98 80.5938C73.9952 83.215 73.1391 85.3741 71.4118 87.071C69.6997 88.768 67.4952 89.8135 64.7982 90.2074V90.571C68.4043 90.9953 71.124 92.1619 72.9573 94.071C74.8058 95.9801 75.7225 98.3665 75.7073 101.23C75.7073 103.927 74.9118 106.321 73.3209 108.412C71.7452 110.488 69.5482 112.124 66.73 113.321C63.927 114.503 60.7073 115.094 57.0709 115.094Z" fill="#1A084B"/>
<path d="M16.9323 35.358C14.938 35.358 13.1695 35.017 11.6269 34.3352C10.0928 33.6449 8.88258 32.6946 7.99622 31.4844C7.10985 30.2741 6.65815 28.8807 6.6411 27.304H13.0076C13.0331 27.875 13.2164 28.3821 13.5573 28.8253C13.8982 29.2599 14.3627 29.6009 14.9508 29.848C15.5388 30.0952 16.2079 30.2188 16.9579 30.2188C17.7079 30.2188 18.3684 30.0866 18.9394 29.8224C19.5189 29.5497 19.9706 29.179 20.2945 28.7102C20.6184 28.233 20.776 27.6875 20.7675 27.0739C20.776 26.4602 20.6013 25.9148 20.2434 25.4375C19.8854 24.9602 19.3783 24.5895 18.7221 24.3253C18.0743 24.0611 17.3073 23.929 16.4209 23.929H13.8769V19.429H16.4209C17.1965 19.429 17.8783 19.3011 18.4664 19.0455C19.063 18.7898 19.5275 18.4318 19.8599 17.9716C20.1922 17.5028 20.3542 16.9659 20.3456 16.3608C20.3542 15.7727 20.2135 15.2571 19.9238 14.8139C19.6425 14.3622 19.2462 14.0128 18.7349 13.7656C18.232 13.5185 17.6482 13.3949 16.9834 13.3949C16.2846 13.3949 15.6496 13.5185 15.0786 13.7656C14.5161 14.0128 14.0687 14.3622 13.7363 14.8139C13.4039 15.2656 13.2292 15.7898 13.2121 16.3864H7.16525C7.1823 14.8267 7.61695 13.4545 8.46923 12.2699C9.3215 11.0767 10.4806 10.1435 11.9465 9.47017C13.4209 8.79687 15.0999 8.46023 16.9834 8.46023C18.8584 8.46023 20.5076 8.78835 21.9309 9.4446C23.3542 10.1009 24.4621 10.9957 25.2547 12.1293C26.0474 13.2543 26.4437 14.5284 26.4437 15.9517C26.4522 17.4261 25.9706 18.6406 24.9991 19.5952C24.036 20.5497 22.7959 21.1378 21.2789 21.3594V21.5639C23.3073 21.8026 24.8371 22.4588 25.8684 23.5327C26.9081 24.6065 27.4238 25.9489 27.4153 27.5597C27.4153 29.0767 26.9678 30.4233 26.0729 31.5994C25.1866 32.767 23.9508 33.6875 22.3655 34.3608C20.7888 35.0256 18.9778 35.358 16.9323 35.358Z" fill="#1A084B"/>
<path d="M96.4589 146.557C98.4533 146.557 100.222 146.898 101.764 147.58C103.298 148.27 104.509 149.22 105.395 150.43C106.281 151.641 106.733 153.034 106.75 154.611H100.384C100.358 154.04 100.175 153.533 99.8339 153.09C99.493 152.655 99.0285 152.314 98.4405 152.067C97.8524 151.82 97.1834 151.696 96.4334 151.696C95.6834 151.696 95.0229 151.828 94.4518 152.092C93.8723 152.365 93.4206 152.736 93.0967 153.205C92.7729 153.682 92.6152 154.227 92.6237 154.841C92.6152 155.455 92.7899 156 93.1479 156.477C93.5058 156.955 94.0129 157.325 94.6692 157.59C95.3169 157.854 96.0839 157.986 96.9703 157.986H99.5143V162.486H96.9703C96.1947 162.486 95.5129 162.614 94.9248 162.869C94.3283 163.125 93.8638 163.483 93.5314 163.943C93.199 164.412 93.0371 164.949 93.0456 165.554C93.0371 166.142 93.1777 166.658 93.4675 167.101C93.7487 167.553 94.145 167.902 94.6564 168.149C95.1592 168.396 95.743 168.52 96.4078 168.52C97.1067 168.52 97.7416 168.396 98.3126 168.149C98.8751 167.902 99.3226 167.553 99.655 167.101C99.9873 166.649 100.162 166.125 100.179 165.528H106.226C106.209 167.088 105.774 168.46 104.922 169.645C104.07 170.838 102.911 171.771 101.445 172.445C99.9703 173.118 98.2913 173.455 96.4078 173.455C94.5328 173.455 92.8837 173.126 91.4604 172.47C90.0371 171.814 88.9291 170.919 88.1365 169.786C87.3439 168.661 86.9476 167.386 86.9476 165.963C86.9391 164.489 87.4206 163.274 88.3922 162.32C89.3552 161.365 90.5953 160.777 92.1123 160.555V160.351C90.0839 160.112 88.5541 159.456 87.5229 158.382C86.4831 157.308 85.9675 155.966 85.976 154.355C85.976 152.838 86.4234 151.491 87.3183 150.315C88.2047 149.148 89.4405 148.227 91.0257 147.554C92.6024 146.889 94.4135 146.557 96.4589 146.557Z" fill="#1A084B"/>
</svg>
