<svg width="113" height="182" viewBox="0 0 113 182" fill="none" xmlns="http://www.w3.org/2000/svg">
<rect x="0.165039" width="112.67" height="181.915" rx="10" fill="#EBEBEB"/>
<path d="M0.165039 82.9285L63.3657 181.915H10.165C4.64219 181.915 0.16504 177.438 0.16504 171.915L0.165039 82.9285Z" fill="#1A084B"/>
<path d="M112.835 98.9863L49.6342 0L102.835 0C108.358 0 112.835 4.47715 112.835 10L112.835 98.9863Z" fill="#1A084B"/>
<path d="M37.8011 106.73V97.9574L56.8693 67.9119H64.6648V79.821H60.142L48.983 97.5029V97.8665H76.5966V106.73H37.8011ZM60.2784 114.457V104.048L60.5057 100.207V67.9119H71.0284V114.457H60.2784Z" fill="#1A084B"/>
<path d="M5.97127 30.6534V25.7188L16.6971 8.81818H21.0821V15.517H18.538L12.261 25.4631V25.6676H27.7937V30.6534H5.97127ZM18.6147 35V29.1449L18.7426 26.9844V8.81818H24.6616V35H18.6147Z" fill="#1A084B"/>
<path d="M106.863 151.261V156.196L96.1375 173.097H91.7525V166.398H94.2966L100.574 156.452V156.247H85.0409V151.261H106.863ZM94.2199 146.915V152.77L94.092 154.93V173.097H88.173V146.915H94.2199Z" fill="#1A084B"/>
</svg>
