<svg width="113" height="182" viewBox="0 0 113 182" fill="none" xmlns="http://www.w3.org/2000/svg">
<rect y="0.0952148" width="112.67" height="181.915" rx="10" fill="#EBEBEB"/>
<path d="M0 83.0237L63.2007 182.01H10C4.47715 182.01 6.64492e-07 177.533 6.25661e-07 172.01L0 83.0237Z" fill="#65B019"/>
<path d="M112.67 99.0815L49.4691 0.0952148L102.67 0.0952148C108.193 0.0952148 112.67 4.57236 112.67 10.0952L112.67 99.0815Z" fill="#65B019"/>
<path d="M57.0536 115.189C53.6597 115.189 50.6446 114.575 48.0082 113.348C45.3718 112.121 43.2885 110.431 41.7582 108.28C40.243 106.128 39.4552 103.659 39.3946 100.871H50.3036C50.3946 102.583 51.0915 103.962 52.3946 105.007C53.6976 106.037 55.2506 106.553 57.0536 106.553C58.4627 106.553 59.7127 106.242 60.8036 105.621C61.8946 105 62.7506 104.128 63.3718 103.007C63.993 101.871 64.2961 100.568 64.2809 99.0981C64.2961 97.5981 63.9855 96.2875 63.3491 95.1662C62.7279 94.045 61.8643 93.1738 60.7582 92.5526C59.6673 91.9162 58.4097 91.5981 56.9855 91.5981C55.637 91.5829 54.3567 91.8784 53.1446 92.4844C51.9476 93.0905 51.0385 93.9162 50.4173 94.9617L40.4855 93.0981L42.5082 68.0072H72.3718V77.0753H51.7582L50.69 88.0526H50.9627C51.7355 86.7647 52.9779 85.7041 54.69 84.8708C56.4173 84.0223 58.3794 83.5981 60.5764 83.5981C63.3643 83.5981 65.8491 84.2496 68.0309 85.5526C70.2279 86.8405 71.9552 88.6284 73.2127 90.9162C74.4855 93.2041 75.1218 95.8253 75.1218 98.7799C75.1218 101.977 74.3643 104.81 72.8491 107.28C71.3491 109.75 69.243 111.689 66.5309 113.098C63.834 114.492 60.6749 115.189 57.0536 115.189Z" fill="#65B019"/>
<path d="M16.2286 35.4532C14.3195 35.4532 12.6235 35.108 11.1406 34.4177C9.65762 33.7273 8.48574 32.777 7.62494 31.5668C6.77267 30.3566 6.32949 28.9674 6.2954 27.3992H12.4318C12.4829 28.3623 12.8749 29.1378 13.6079 29.7259C14.3409 30.3054 15.2144 30.5952 16.2286 30.5952C17.0213 30.5952 17.7244 30.4205 18.338 30.0711C18.9516 29.7216 19.4332 29.2316 19.7826 28.6009C20.132 27.9617 20.3025 27.2287 20.294 26.402C20.3025 25.5583 20.1278 24.8211 19.7698 24.1904C19.4204 23.5597 18.9346 23.0696 18.3124 22.7202C17.6988 22.3623 16.9914 22.1833 16.1903 22.1833C15.4318 22.1748 14.7116 22.341 14.0298 22.6819C13.3565 23.0228 12.8451 23.4873 12.4957 24.0753L6.90904 23.027L8.04682 8.9134H24.8451V14.0142H13.2499L12.6491 20.189H12.8025C13.2372 19.4645 13.936 18.8679 14.8991 18.3992C15.8707 17.9219 16.9744 17.6833 18.2102 17.6833C19.7784 17.6833 21.1761 18.0498 22.4034 18.7827C23.6391 19.5071 24.6107 20.5128 25.3181 21.7998C26.034 23.0867 26.392 24.5611 26.392 26.2231C26.392 28.0214 25.9659 29.6151 25.1136 31.0043C24.2698 32.3935 23.0852 33.4844 21.5596 34.277C20.0426 35.0611 18.2656 35.4532 16.2286 35.4532Z" fill="#65B019"/>
<path d="M96.2758 146.652C98.1849 146.652 99.8809 146.997 101.364 147.688C102.847 148.378 104.019 149.328 104.88 150.538C105.732 151.749 106.175 153.138 106.209 154.706H100.073C100.022 153.743 99.6295 152.967 98.8966 152.379C98.1636 151.8 97.29 151.51 96.2758 151.51C95.4832 151.51 94.7801 151.685 94.1664 152.034C93.5528 152.384 93.0713 152.874 92.7218 153.504C92.3724 154.144 92.202 154.876 92.2105 155.703C92.202 156.547 92.3767 157.284 92.7346 157.915C93.0841 158.546 93.5699 159.036 94.192 159.385C94.8056 159.743 95.513 159.922 96.3142 159.922C97.0727 159.93 97.7929 159.764 98.4747 159.423C99.148 159.082 99.6593 158.618 100.009 158.03L105.595 159.078L104.458 173.192H87.6593V168.091H99.2545L99.8554 161.916H99.702C99.2673 162.641 98.5684 163.237 97.6054 163.706C96.6338 164.183 95.5301 164.422 94.2943 164.422C92.7261 164.422 91.3284 164.055 90.1011 163.323C88.8653 162.598 87.8937 161.592 87.1863 160.305C86.4704 159.019 86.1125 157.544 86.1125 155.882C86.1125 154.084 86.5386 152.49 87.3909 151.101C88.2346 149.712 89.4193 148.621 90.9449 147.828C92.4619 147.044 94.2389 146.652 96.2758 146.652Z" fill="#65B019"/>
</svg>
