<svg width="114" height="182" viewBox="0 0 114 182" fill="none" xmlns="http://www.w3.org/2000/svg">
<rect x="0.721497" y="0.0952148" width="112.67" height="181.915" rx="10" fill="#EBEBEB"/>
<path d="M0.721497 83.0237L63.9222 182.01H10.7215C5.19865 182.01 0.721497 177.533 0.721497 172.01L0.721497 83.0237Z" fill="#65B019"/>
<path d="M113.391 99.0815L50.1907 0.0952148L103.391 0.0952148C108.914 0.0952148 113.391 4.57236 113.391 10.0952L113.391 99.0815Z" fill="#65B019"/>
<path d="M57.6161 115.189C55.0706 115.189 52.6312 114.78 50.2979 113.962C47.9645 113.128 45.8888 111.81 44.0706 110.007C42.2524 108.189 40.8206 105.81 39.7751 102.871C38.7297 99.9162 38.2145 96.3178 38.2297 92.0753C38.2448 88.242 38.7145 84.8026 39.6388 81.7572C40.563 78.6966 41.8812 76.0981 43.5933 73.9617C45.3206 71.8253 47.3812 70.1965 49.7751 69.0753C52.1842 67.939 54.8736 67.3708 57.8433 67.3708C61.1009 67.3708 63.9721 68.0072 66.457 69.2799C68.957 70.5375 70.957 72.2344 72.457 74.3708C73.957 76.492 74.8433 78.8556 75.1161 81.4617H64.0479C63.7145 79.992 62.9797 78.8784 61.8433 78.1208C60.7221 77.3481 59.3888 76.9617 57.8433 76.9617C54.9948 76.9617 52.8661 78.1965 51.457 80.6662C50.063 83.1359 49.3509 86.439 49.3206 90.5753H49.6161C50.2524 89.1814 51.1691 87.9844 52.3661 86.9844C53.563 85.9844 54.9342 85.2193 56.4797 84.689C58.0403 84.1435 59.6918 83.8708 61.4342 83.8708C64.2221 83.8708 66.6842 84.5147 68.8206 85.8026C70.957 87.0905 72.6312 88.8556 73.8433 91.0981C75.0555 93.3253 75.6539 95.8784 75.6388 98.7572C75.6539 102 74.8964 104.863 73.3661 107.348C71.8358 109.818 69.7145 111.742 67.0024 113.121C64.3055 114.5 61.1767 115.189 57.6161 115.189ZM57.5479 106.553C58.9267 106.553 60.1615 106.227 61.2524 105.575C62.3433 104.924 63.1994 104.037 63.8206 102.916C64.4418 101.795 64.7448 100.53 64.7297 99.1208C64.7448 97.6966 64.4418 96.4314 63.8206 95.3253C63.2145 94.2193 62.3661 93.3405 61.2751 92.689C60.1994 92.0375 58.9645 91.7117 57.5706 91.7117C56.5555 91.7117 55.6085 91.9011 54.7297 92.2799C53.8509 92.6587 53.0858 93.189 52.4342 93.8708C51.7979 94.5375 51.2979 95.3253 50.9342 96.2344C50.5706 97.1284 50.3812 98.0981 50.3661 99.1435C50.3812 100.522 50.6994 101.772 51.3206 102.894C51.9418 104.015 52.7903 104.909 53.8661 105.575C54.9418 106.227 56.1691 106.553 57.5479 106.553Z" fill="#65B019"/>
<path d="M17.6418 35.4532C16.21 35.4532 14.8379 35.2231 13.5254 34.7628C12.2129 34.2941 11.0452 33.5526 10.0225 32.5384C8.99979 31.5157 8.19439 30.1776 7.60632 28.5242C7.01826 26.8623 6.72848 24.8381 6.73701 22.4517C6.74553 20.2955 7.00973 18.3608 7.52962 16.6478C8.04951 14.9262 8.79098 13.4645 9.75405 12.2628C10.7256 11.0611 11.8847 10.1449 13.2313 9.51425C14.5864 8.87504 16.0992 8.55544 17.7697 8.55544C19.6021 8.55544 21.2171 8.9134 22.6148 9.62931C24.0211 10.3367 25.1461 11.2912 25.9898 12.4929C26.8336 13.6861 27.3322 15.0157 27.4856 16.4816H21.2597C21.0722 15.6549 20.6589 15.0285 20.0197 14.6023C19.389 14.1677 18.639 13.9503 17.7697 13.9503C16.1674 13.9503 14.97 14.6449 14.1773 16.0341C13.3933 17.4233 12.9927 19.2813 12.9756 21.608H13.1418C13.4998 20.8239 14.0154 20.1506 14.6887 19.5881C15.362 19.0256 16.1333 18.5952 17.0026 18.2969C17.8805 17.9901 18.8094 17.8367 19.7896 17.8367C21.3577 17.8367 22.7427 18.1989 23.9444 18.9233C25.1461 19.6478 26.0879 20.6407 26.7697 21.902C27.4515 23.1549 27.7881 24.591 27.7796 26.2103C27.7881 28.0341 27.362 29.6449 26.5012 31.0427C25.6404 32.4319 24.4472 33.5142 22.9217 34.2898C21.4046 35.0654 19.6447 35.4532 17.6418 35.4532ZM17.6035 30.5952C18.3791 30.5952 19.0737 30.412 19.6873 30.0455C20.3009 29.679 20.7825 29.1804 21.1319 28.5498C21.4813 27.9191 21.6518 27.2074 21.6433 26.4148C21.6518 25.6137 21.4813 24.902 21.1319 24.2799C20.791 23.6577 20.3137 23.1634 19.7001 22.7969C19.095 22.4304 18.4004 22.2472 17.6163 22.2472C17.0452 22.2472 16.5126 22.3537 16.0183 22.5668C15.5239 22.7799 15.0935 23.0782 14.7271 23.4617C14.3691 23.8367 14.0879 24.2799 13.8833 24.7912C13.6788 25.2941 13.5722 25.8395 13.5637 26.4276C13.5722 27.2032 13.7512 27.9063 14.1006 28.537C14.4501 29.1677 14.9273 29.6705 15.5325 30.0455C16.1376 30.412 16.8279 30.5952 17.6035 30.5952Z" fill="#65B019"/>
<path d="M96.3056 146.652C97.7374 146.652 99.1095 146.882 100.422 147.342C101.735 147.811 102.902 148.553 103.925 149.567C104.948 150.59 105.753 151.928 106.341 153.581C106.929 155.243 107.219 157.267 107.21 159.653C107.202 161.81 106.938 163.744 106.418 165.457C105.898 167.179 105.156 168.641 104.193 169.842C103.222 171.044 102.063 171.96 100.716 172.591C99.361 173.23 97.8482 173.55 96.1777 173.55C94.3453 173.55 92.7303 173.192 91.3325 172.476C89.9263 171.769 88.8013 170.814 87.9575 169.612C87.1138 168.419 86.6152 167.09 86.4618 165.624H92.6877C92.8752 166.45 93.2885 167.077 93.9277 167.503C94.5584 167.938 95.3084 168.155 96.1777 168.155C97.78 168.155 98.9774 167.46 99.77 166.071C100.554 164.682 100.955 162.824 100.972 160.497H100.806C100.448 161.281 99.932 161.955 99.2587 162.517C98.5854 163.08 97.8141 163.51 96.9448 163.808C96.0669 164.115 95.1379 164.269 94.1578 164.269C92.5896 164.269 91.2047 163.906 90.003 163.182C88.8013 162.457 87.8595 161.465 87.1777 160.203C86.4959 158.95 86.1592 157.514 86.1678 155.895C86.1592 154.071 86.5854 152.46 87.4462 151.063C88.307 149.673 89.5002 148.591 91.0257 147.815C92.5428 147.04 94.3027 146.652 96.3056 146.652ZM96.3439 151.51C95.5683 151.51 94.8737 151.693 94.2601 152.06C93.6465 152.426 93.1649 152.925 92.8155 153.555C92.4661 154.186 92.2956 154.898 92.3041 155.69C92.2956 156.492 92.4661 157.203 92.8155 157.825C93.1564 158.448 93.6337 158.942 94.2473 159.308C94.8524 159.675 95.547 159.858 96.3311 159.858C96.9021 159.858 97.4348 159.751 97.9291 159.538C98.4235 159.325 98.8538 159.027 99.2203 158.644C99.5783 158.269 99.8595 157.825 100.064 157.314C100.269 156.811 100.375 156.266 100.384 155.678C100.375 154.902 100.196 154.199 99.8467 153.568C99.4973 152.938 99.02 152.435 98.4149 152.06C97.8098 151.693 97.1195 151.51 96.3439 151.51Z" fill="#65B019"/>
</svg>
