<svg width="114" height="182" viewBox="0 0 114 182" fill="none" xmlns="http://www.w3.org/2000/svg">
<rect x="0.443359" y="0.0952148" width="112.67" height="181.915" rx="10" fill="#EBEBEB"/>
<path d="M0.443359 83.0237L63.644 182.01H10.4434C4.92051 182.01 0.44336 177.533 0.44336 172.01L0.443359 83.0237Z" fill="#65B019"/>
<path d="M113.113 99.0815L49.9125 0.0952148L103.113 0.0952148C108.636 0.0952148 113.113 4.57236 113.113 10.0952L113.113 99.0815Z" fill="#65B019"/>
<path d="M43.4062 114.553L62.1789 77.3708V77.0753H40.2243V68.0072H73.8153V77.1435L54.9743 114.553H43.4062Z" fill="#65B019"/>
<path d="M8.74586 35.0952L19.3055 14.1804V14.0142H6.95609V8.9134H25.851V14.0526L15.253 35.0952H8.74586Z" fill="#65B019"/>
<path d="M104.645 147.01L94.0857 167.925V168.091H106.435V173.192H87.5403V168.053L98.1383 147.01H104.645Z" fill="#65B019"/>
</svg>
