<svg width="113" height="182" viewBox="0 0 113 182" fill="none" xmlns="http://www.w3.org/2000/svg">
<rect x="0.165039" y="0.0952148" width="112.67" height="181.915" rx="10" fill="#EBEBEB"/>
<path d="M0.165039 83.0237L63.3657 182.01H10.165C4.64219 182.01 0.16504 177.533 0.16504 172.01L0.165039 83.0237Z" fill="#65B019"/>
<path d="M112.835 99.0815L49.6342 0.0952148L102.835 0.0952148C108.358 0.0952148 112.835 4.57236 112.835 10.0952L112.835 99.0815Z" fill="#65B019"/>
<path d="M56.4886 115.189C52.8674 115.189 49.6326 114.613 46.7841 113.462C43.9508 112.295 41.7235 110.719 40.1023 108.734C38.4962 106.734 37.6932 104.477 37.6932 101.962C37.6932 100.037 38.1553 98.2723 39.0795 96.6662C40.0038 95.0602 41.2538 93.7269 42.8295 92.6662C44.4205 91.5905 46.1932 90.9011 48.1477 90.5981V90.2344C45.5871 89.7647 43.4886 88.5753 41.8523 86.6662C40.2311 84.7572 39.4205 82.5223 39.4205 79.9617C39.4205 77.5375 40.1553 75.3784 41.625 73.4844C43.1098 71.5905 45.1326 70.0981 47.6932 69.0072C50.2689 67.9162 53.2008 67.3708 56.4886 67.3708C59.7765 67.3708 62.7008 67.9162 65.2614 69.0072C67.8371 70.0981 69.8598 71.5905 71.3295 73.4844C72.8144 75.3784 73.5568 77.5375 73.5568 79.9617C73.5568 82.5375 72.7311 84.7799 71.0795 86.689C69.4432 88.5829 67.3598 89.7647 64.8295 90.2344V90.5981C66.7689 90.9011 68.5265 91.5905 70.1023 92.6662C71.6932 93.7269 72.9508 95.0602 73.875 96.6662C74.8144 98.2723 75.2841 100.037 75.2841 101.962C75.2841 104.477 74.4735 106.734 72.8523 108.734C71.2311 110.719 69.0038 112.295 66.1705 113.462C63.3523 114.613 60.125 115.189 56.4886 115.189ZM56.4886 107.212C57.8674 107.212 59.0795 106.954 60.125 106.439C61.1705 105.909 61.9886 105.174 62.5795 104.234C63.1856 103.295 63.4886 102.234 63.4886 101.053C63.4886 99.8405 63.1856 98.7647 62.5795 97.8253C61.9735 96.8859 61.1402 96.1511 60.0795 95.6208C59.0341 95.0753 57.8371 94.8026 56.4886 94.8026C55.1553 94.8026 53.9583 95.0753 52.8977 95.6208C51.8371 96.1511 51.0038 96.8859 50.3977 97.8253C49.7917 98.7647 49.4886 99.8405 49.4886 101.053C49.4886 102.234 49.7841 103.295 50.375 104.234C50.9811 105.159 51.8068 105.886 52.8523 106.416C53.9129 106.947 55.125 107.212 56.4886 107.212ZM56.4886 86.8708C57.6705 86.8708 58.7159 86.6284 59.625 86.1435C60.5492 85.6587 61.2689 84.9844 61.7841 84.1208C62.3144 83.2572 62.5795 82.2799 62.5795 81.189C62.5795 80.0981 62.3144 79.1359 61.7841 78.3026C61.2689 77.4693 60.5568 76.8178 59.6477 76.3481C58.7386 75.8632 57.6856 75.6208 56.4886 75.6208C55.3068 75.6208 54.2538 75.8632 53.3295 76.3481C52.4053 76.8178 51.6856 77.4693 51.1705 78.3026C50.6553 79.1359 50.3977 80.0981 50.3977 81.189C50.3977 82.2799 50.6553 83.2572 51.1705 84.1208C51.7008 84.9693 52.428 85.6435 53.3523 86.1435C54.2765 86.6284 55.322 86.8708 56.4886 86.8708Z" fill="#65B019"/>
<path d="M16.7642 35.4532C14.7273 35.4532 12.9077 35.1293 11.3054 34.4816C9.71168 33.8253 8.45884 32.939 7.54691 31.8225C6.6435 30.6975 6.19179 29.4276 6.19179 28.0128C6.19179 26.9304 6.45174 25.9375 6.97162 25.0341C7.49151 24.1307 8.19464 23.3807 9.081 22.7841C9.97589 22.179 10.973 21.7912 12.0725 21.6208V21.4162C10.6321 21.152 9.45174 20.483 8.53128 19.4091C7.61935 18.3353 7.16339 17.0782 7.16339 15.6378C7.16339 14.2742 7.57674 13.0597 8.40344 11.9944C9.23867 10.929 10.3765 10.0895 11.8168 9.4759C13.2657 8.86226 14.9148 8.55544 16.7642 8.55544C18.6137 8.55544 20.2586 8.86226 21.6989 9.4759C23.1478 10.0895 24.2855 10.929 25.1123 11.9944C25.9475 13.0597 26.3651 14.2742 26.3651 15.6378C26.3651 17.0867 25.9006 18.3481 24.9716 19.4219C24.0512 20.4873 22.8793 21.152 21.456 21.4162V21.6208C22.5469 21.7912 23.5355 22.179 24.4219 22.7841C25.3168 23.3807 26.0242 24.1307 26.5441 25.0341C27.0725 25.9375 27.3367 26.9304 27.3367 28.0128C27.3367 29.4276 26.8807 30.6975 25.9688 31.8225C25.0569 32.939 23.804 33.8253 22.2103 34.4816C20.625 35.1293 18.8097 35.4532 16.7642 35.4532ZM16.7642 30.966C17.5398 30.966 18.2216 30.8211 18.8097 30.5313C19.3978 30.233 19.858 29.8196 20.1904 29.2912C20.5313 28.7628 20.7017 28.1662 20.7017 27.5015C20.7017 26.8196 20.5313 26.2145 20.1904 25.6861C19.8495 25.1577 19.3807 24.7444 18.7841 24.4461C18.1961 24.1392 17.5228 23.9858 16.7642 23.9858C16.0142 23.9858 15.3409 24.1392 14.7444 24.4461C14.1478 24.7444 13.679 25.1577 13.3381 25.6861C12.9972 26.2145 12.8267 26.8196 12.8267 27.5015C12.8267 28.1662 12.9929 28.7628 13.3253 29.2912C13.6662 29.8111 14.1307 30.2202 14.7188 30.5185C15.3154 30.8168 15.9972 30.966 16.7642 30.966ZM16.7642 19.5242C17.429 19.5242 18.0171 19.3878 18.5284 19.1151C19.0483 18.8424 19.4532 18.4631 19.7429 17.9773C20.0412 17.4915 20.1904 16.9418 20.1904 16.3282C20.1904 15.7145 20.0412 15.1733 19.7429 14.7046C19.4532 14.2358 19.0526 13.8694 18.5412 13.6052C18.0299 13.3324 17.4375 13.1961 16.7642 13.1961C16.0995 13.1961 15.5071 13.3324 14.9872 13.6052C14.4674 13.8694 14.0625 14.2358 13.7728 14.7046C13.483 15.1733 13.3381 15.7145 13.3381 16.3282C13.3381 16.9418 13.483 17.4915 13.7728 17.9773C14.0711 18.4546 14.4801 18.8339 15 19.1151C15.5199 19.3878 16.108 19.5242 16.7642 19.5242Z" fill="#65B019"/>
<path d="M96.0704 146.652C98.1073 146.652 99.9269 146.976 101.529 147.624C103.123 148.28 104.376 149.166 105.288 150.283C106.191 151.408 106.643 152.678 106.643 154.092C106.643 155.175 106.383 156.168 105.863 157.071C105.343 157.974 104.64 158.724 103.754 159.321C102.859 159.926 101.862 160.314 100.762 160.484V160.689C102.202 160.953 103.383 161.622 104.303 162.696C105.215 163.77 105.671 165.027 105.671 166.467C105.671 167.831 105.258 169.046 104.431 170.111C103.596 171.176 102.458 172.016 101.018 172.629C99.5689 173.243 97.9198 173.55 96.0704 173.55C94.2209 173.55 92.576 173.243 91.1357 172.629C89.6868 172.016 88.549 171.176 87.7223 170.111C86.8871 169.046 86.4695 167.831 86.4695 166.467C86.4695 165.019 86.934 163.757 87.863 162.683C88.7834 161.618 89.9553 160.953 91.3786 160.689V160.484C90.2877 160.314 89.2991 159.926 88.4127 159.321C87.5178 158.724 86.8104 157.974 86.2905 157.071C85.7621 156.168 85.4979 155.175 85.4979 154.092C85.4979 152.678 85.9539 151.408 86.8658 150.283C87.7777 149.166 89.0306 148.28 90.6243 147.624C92.2096 146.976 94.0249 146.652 96.0704 146.652ZM96.0704 151.139C95.2948 151.139 94.613 151.284 94.0249 151.574C93.4368 151.872 92.9766 152.286 92.6442 152.814C92.3033 153.342 92.1329 153.939 92.1329 154.604C92.1329 155.286 92.3033 155.891 92.6442 156.419C92.9851 156.948 93.4539 157.361 94.0505 157.659C94.6385 157.966 95.3118 158.119 96.0704 158.119C96.8204 158.119 97.4937 157.966 98.0902 157.659C98.6868 157.361 99.1556 156.948 99.4965 156.419C99.8374 155.891 100.008 155.286 100.008 154.604C100.008 153.939 99.8417 153.342 99.5093 152.814C99.1684 152.294 98.7039 151.885 98.1158 151.587C97.5192 151.288 96.8374 151.139 96.0704 151.139ZM96.0704 162.581C95.4056 162.581 94.8175 162.717 94.3062 162.99C93.7863 163.263 93.3814 163.642 93.0917 164.128C92.7934 164.614 92.6442 165.163 92.6442 165.777C92.6442 166.391 92.7934 166.932 93.0917 167.401C93.3814 167.869 93.782 168.236 94.2934 168.5C94.8047 168.773 95.3971 168.909 96.0704 168.909C96.7351 168.909 97.3275 168.773 97.8473 168.5C98.3672 168.236 98.7721 167.869 99.0618 167.401C99.3516 166.932 99.4965 166.391 99.4965 165.777C99.4965 165.163 99.3516 164.614 99.0618 164.128C98.7635 163.651 98.3544 163.271 97.8346 162.99C97.3147 162.717 96.7266 162.581 96.0704 162.581Z" fill="#65B019"/>
</svg>
