<svg width="114" height="183" viewBox="0 0 114 183" fill="none" xmlns="http://www.w3.org/2000/svg">
<rect x="0.729065" y="0.189941" width="112.67" height="181.915" rx="10" fill="#EBEBEB"/>
<path d="M0.729065 83.1184L63.9297 182.105H10.7291C5.20622 182.105 0.729066 177.628 0.729066 172.105L0.729065 83.1184Z" fill="#D81E81"/>
<path d="M113.399 99.1763L50.1982 0.189941L103.399 0.189941C108.922 0.189941 113.399 4.66709 113.399 10.1899L113.399 99.1763Z" fill="#D81E81"/>
<path d="M56.4873 67.4655C59.0327 67.4655 61.4645 67.8822 63.7827 68.7155C66.1009 69.5337 68.1691 70.8443 69.9873 72.6473C71.8054 74.4352 73.2373 76.7913 74.2827 79.7155C75.3282 82.6398 75.8509 86.2079 75.8509 90.4201C75.8661 94.2989 75.4115 97.7761 74.4873 100.852C73.563 103.912 72.2373 106.519 70.51 108.67C68.7979 110.822 66.7373 112.466 64.3282 113.602C61.9191 114.723 59.2297 115.284 56.26 115.284C52.9873 115.284 50.1009 114.655 47.6009 113.397C45.116 112.125 43.1236 110.412 41.6236 108.261C40.1388 106.109 39.2524 103.7 38.9645 101.034H50.0327C50.3812 102.579 51.116 103.746 52.2373 104.534C53.3585 105.306 54.6994 105.693 56.26 105.693C59.1085 105.693 61.2373 104.458 62.6464 101.988C64.0554 99.5186 64.76 96.1625 64.76 91.9201H64.4873C63.8357 93.314 62.9115 94.511 61.7145 95.511C60.5327 96.511 59.1615 97.2761 57.6009 97.8064C56.0403 98.3367 54.3964 98.6019 52.6691 98.6019C49.8812 98.6019 47.4191 97.9655 45.2827 96.6928C43.1615 95.4201 41.4948 93.6701 40.2827 91.4428C39.0857 89.2155 38.4797 86.6701 38.4645 83.8064C38.4494 80.5943 39.1994 77.761 40.7145 75.3064C42.2297 72.8367 44.3433 70.9125 47.0554 69.5337C49.7676 68.1398 52.9115 67.4504 56.4873 67.4655ZM56.5554 76.1019C55.1615 76.1019 53.9191 76.4276 52.8282 77.0792C51.7524 77.7307 50.9039 78.6095 50.2827 79.7155C49.6615 80.8216 49.3585 82.064 49.3736 83.4428C49.3888 84.8216 49.6994 86.064 50.3054 87.1701C50.9267 88.2761 51.7676 89.1549 52.8282 89.8064C53.9039 90.4579 55.1312 90.7837 56.51 90.7837C57.5403 90.7837 58.4948 90.5943 59.3736 90.2155C60.2524 89.8367 61.0176 89.314 61.6691 88.6473C62.3206 87.9655 62.8282 87.1776 63.1918 86.2837C63.5706 85.3898 63.7524 84.4352 63.7373 83.4201C63.7221 82.0716 63.4039 80.8443 62.7827 79.7382C62.1615 78.6322 61.3054 77.7534 60.2145 77.1019C59.1388 76.4352 57.9191 76.1019 56.5554 76.1019Z" fill="#D81E81"/>
<path d="M17.0102 8.65017C18.442 8.65017 19.8099 8.88454 21.1139 9.35329C22.4179 9.81352 23.5812 10.5507 24.6039 11.5649C25.6267 12.5706 26.4321 13.8959 27.0201 15.5408C27.6082 17.1857 27.9022 19.1928 27.9022 21.5621C27.9108 23.7439 27.6551 25.6999 27.1352 27.43C26.6153 29.1516 25.8696 30.6175 24.898 31.8277C23.9349 33.038 22.7758 33.9627 21.4207 34.6019C20.0656 35.2326 18.5528 35.5479 16.8824 35.5479C15.0414 35.5479 13.4179 35.1942 12.0116 34.4868C10.6139 33.7709 9.49315 32.8078 8.6494 31.5976C7.81418 30.3874 7.3156 29.0323 7.15366 27.5323H13.3795C13.5755 28.4016 13.9889 29.0578 14.6196 29.501C15.2503 29.9357 16.0045 30.153 16.8824 30.153C18.4846 30.153 19.6821 29.4584 20.4747 28.0692C21.2673 26.68 21.6636 24.7922 21.6636 22.4058H21.5102C21.1437 23.1899 20.6238 23.8632 19.9505 24.4257C19.2858 24.9882 18.5145 25.4186 17.6366 25.7169C16.7588 26.0152 15.8341 26.1644 14.8625 26.1644C13.2943 26.1644 11.9093 25.8064 10.7076 25.0905C9.51446 24.3746 8.57696 23.3902 7.89514 22.1374C7.22185 20.8845 6.88094 19.4527 6.87241 17.8419C6.86389 16.0351 7.28577 14.4414 8.13804 13.0607C8.99031 11.6715 10.1792 10.5891 11.7048 9.81352C13.2304 9.02943 14.9988 8.64164 17.0102 8.65017ZM17.0486 13.5081C16.2645 13.5081 15.5656 13.6914 14.952 14.0578C14.3468 14.4243 13.8696 14.9186 13.5201 15.5408C13.1707 16.163 13.0003 16.8618 13.0088 17.6374C13.0173 18.413 13.192 19.1118 13.5329 19.734C13.8824 20.3561 14.3554 20.8505 14.952 21.2169C15.5571 21.5834 16.2474 21.7666 17.023 21.7666C17.6025 21.7666 18.1395 21.6601 18.6338 21.447C19.1281 21.234 19.5585 20.9399 19.925 20.5649C20.2914 20.1814 20.577 19.7382 20.7815 19.2354C20.9946 18.7326 21.0968 18.1956 21.0883 17.6246C21.0798 16.8661 20.9008 16.1757 20.5514 15.5536C20.202 14.9314 19.7204 14.4371 19.1068 14.0706C18.5017 13.6956 17.8156 13.5081 17.0486 13.5081Z" fill="#D81E81"/>
<path d="M96.9523 173.645C95.5205 173.645 94.1526 173.41 92.8486 172.941C91.5447 172.481 90.3813 171.744 89.3586 170.73C88.3358 169.724 87.5305 168.399 86.9424 166.754C86.3543 165.109 86.0603 163.102 86.0603 160.733C86.0518 158.551 86.3074 156.595 86.8273 154.865C87.3472 153.143 88.093 151.677 89.0645 150.467C90.0276 149.257 91.1867 148.332 92.5418 147.693C93.8969 147.062 95.4097 146.747 97.0802 146.747C98.9211 146.747 100.545 147.1 101.951 147.808C103.349 148.524 104.469 149.487 105.313 150.697C106.148 151.907 106.647 153.262 106.809 154.762H100.583C100.387 153.893 99.9736 153.237 99.343 152.794C98.7123 152.359 97.958 152.142 97.0802 152.142C95.4779 152.142 94.2805 152.836 93.4878 154.225C92.6952 155.615 92.2989 157.502 92.2989 159.889H92.4523C92.8188 159.105 93.3387 158.431 94.012 157.869C94.6768 157.306 95.4481 156.876 96.3259 156.578C97.2037 156.279 98.1285 156.13 99.1001 156.13C100.668 156.13 102.053 156.488 103.255 157.204C104.448 157.92 105.386 158.904 106.067 160.157C106.741 161.41 107.082 162.842 107.09 164.453C107.099 166.26 106.677 167.853 105.824 169.234C104.972 170.623 103.783 171.706 102.258 172.481C100.732 173.265 98.9637 173.653 96.9523 173.645ZM96.914 168.787C97.6981 168.787 98.3969 168.603 99.0106 168.237C99.6157 167.87 100.093 167.376 100.442 166.754C100.792 166.132 100.962 165.433 100.954 164.657C100.945 163.882 100.771 163.183 100.43 162.561C100.08 161.939 99.6072 161.444 99.0106 161.078C98.4055 160.711 97.7151 160.528 96.9395 160.528C96.36 160.528 95.8231 160.635 95.3287 160.848C94.8344 161.061 94.404 161.355 94.0376 161.73C93.6711 162.113 93.3856 162.556 93.181 163.059C92.968 163.562 92.8657 164.099 92.8742 164.67C92.8827 165.429 93.0617 166.119 93.4111 166.741C93.7606 167.363 94.2421 167.858 94.8557 168.224C95.4608 168.599 96.1469 168.787 96.914 168.787Z" fill="#D81E81"/>
</svg>
